<svg viewBox="0 0 350 350" xmlns="http://www.w3.org/2000/svg">
<rect x="15" y="15" width="320" height="320" rx="32" ry="32" fill="#fff" opacity="0.9" />
    <g transform="translate(15,0)">
    <g id="left" class="part">
        <path
            d="M 1 0 C 3.2513 1.026 4.0818 2.1302 5.9297 5.0703 C 6.5989 6.4117 7.2459 7.7644 7.875 9.125 C 8.2187 9.8671 8.5624 10.6092 8.9165 11.3738 C 18.2622 32.6521 20.5781 56.0026 20 79 C 21.338 78.2594 21.338 78.2594 22.7031 77.5039 C 23.8853 76.8565 25.0676 76.2094 26.25 75.5625 C 26.8365 75.237 27.423 74.9115 28.0273 74.5762 C 34.6354 70.9751 40.5049 70.0026 48 71 C 55.1444 73.5397 61.2436 77.0546 66 83 C 67 84 67 85 68 86 C 65.0564 86.0864 64.1128 86.1727 63.1406 86.2617 C 52.2944 87.4487 43.3739 90.1963 34 96 C 35.4502 95.7834 35.4502 95.7834 36.9297 95.5625 C 38.2316 95.3769 39.5336 95.1912 40.875 95 C 42.1512 94.8144 43.4273 94.6287 44.7422 94.4375 C 53.2064 93.4382 61.2465 94.1222 69.625 95.5 C 70.5338 95.6431 71.4426 95.7862 72.3789 95.9336 C 74.5871 96.2823 76.794 96.6378 81 99 C 81 99 81 99 81 99 C 77.4763 101.8179 77.4763 101.8179 75.9219 102.6523 C 44.621 119.6929 17.8819 146.2841 6.6875 180.6875 C 5.1632 185.9509 4.163 191.2143 3.3945 196.6367 C 3 199 3 199 2 201 C 1 202 1 202 1 202 C -0.1801 200.1636 -0.1801 200.1636 -0.3638 199.3103 C -9.429 157.8005 -31.273 129.1612 -66.7632 106.3765 C -70.4348 104.1171 -74.2054 102.0444 -79 99 C -79 99 -79 99 -79 99 C -61.897 94.097 -48.428 93.314 -32 96 C -34.1838 94.8672 -36.3716 93.7438 -38.5625 92.625 C -39.1716 92.3079 -39.7807 91.9908 -40.4082 91.6641 C -46.2061 88.7191 -51.9204 86.9107 -58.4375 86.375 C -59.3025 86.3002 -60.1674 86.2255 -61.0586 86.1484 C -62.0196 86.075 -62.0196 86.075 -65 86 C -63 82 -63 82 -61.6016 80.2188 C -54.5091 74.0514 -47.1778 70.1863 -37.582 70.6094 C -30.1659 71.7313 -24.1048 74.7516 -18 79 C -18.058 77.9765 -18.116 76.953 -18.1758 75.8984 C -19.1422 49.9581 -13.5426 23.7251 -1 1 C 1 0 1 0 1 0 Z"
            fill="#EA7102" transform="translate(160,23)" />
    </g>

    <g id="right" class="part">
        <path
            d="M0 0 C3.0719297 1.68618896 4.85391343 4.36968433 6.89453125 7.13671875 C7.85626767 8.40631744 8.81989233 9.67448742 9.78515625 10.94140625 C10.29369141 11.61139648 10.80222656 12.28138672 11.32617188 12.97167969 C13.03158638 15.17033684 14.78799836 17.31705804 16.56640625 19.45703125 C17.16203369 20.1749585 17.75766113 20.89288574 18.37133789 21.63256836 C19.54008326 23.03593176 20.71364968 24.43529613 21.89233398 25.83032227 C22.68812866 26.79216431 22.68812866 26.79216431 23.5 27.7734375 C23.9746167 28.33893311 24.4492334 28.90442871 24.93823242 29.48706055 C25.95703125 31.07421875 25.95703125 31.07421875 25.95703125 34.07421875 C24.92964844 34.55890625 23.90226562 35.04359375 22.84375 35.54296875 C10.00691421 41.70657654 -0.77062187 49.13593193 -11.04296875 59.07421875 C-11.80480469 59.81027344 -12.56664062 60.54632813 -13.3515625 61.3046875 C-32.09853051 80.70146376 -37.91636849 107.97971371 -38.359375 134.13671875 C-38.3801561 135.16861328 -38.40093719 136.20050781 -38.42234802 137.26367188 C-38.4873098 140.53379171 -38.5464784 143.8039863 -38.60546875 147.07421875 C-38.64870482 149.30209081 -38.69232067 151.52995554 -38.73632812 153.7578125 C-38.84293585 159.19653742 -38.9447976 164.63533535 -39.04296875 170.07421875 C-44.86368497 170.09886513 -50.68437109 170.11705305 -56.50512695 170.12915039 C-58.48690316 170.13419142 -60.46867564 170.14102413 -62.45043945 170.1496582 C-65.29248984 170.1617339 -68.13449122 170.1674492 -70.9765625 170.171875 C-72.314058 170.17961693 -72.314058 170.17961693 -73.67857361 170.18751526 C-75.80037476 170.18771052 -77.92207655 170.13631905 -80.04296875 170.07421875 C-81.63232666 168.48486084 -81.1781705 166.84409385 -81.18823242 164.640625 C-81.19461227 163.69453369 -81.20099213 162.74844238 -81.20756531 161.77368164 C-81.20867813 160.73848389 -81.20979095 159.70328613 -81.2109375 158.63671875 C-81.2142659 157.5686499 -81.2175943 156.50058105 -81.22102356 155.40014648 C-81.22610416 153.12353954 -81.22843154 150.8469251 -81.22827148 148.5703125 C-81.23042464 145.14439844 -81.24847392 141.71882428 -81.26757812 138.29296875 C-81.37913939 95.69463995 -70.50108452 60.43812759 -41.04296875 29.07421875 C-40.47964844 28.43484375 -39.91632813 27.79546875 -39.3359375 27.13671875 C-31.69380715 18.85630663 -11.80524959 0.4288714 0 0 Z "
            fill="#38AA39" transform="translate(244.04296875,125.92578125)" />
    </g>
    
    <g id="middle" class="part">
        <path
            d="M 0 0 C 15.8926 3.2881 30.655 18.0688 42 29 C 42.642 29.5904 43.2839 30.1808 43.9453 30.7891 C 54.2587 40.5268 61.4977 52.5289 68 65 C 68.349 65.6651 68.698 66.3302 69.0576 67.0154 C 73.8845 76.4084 76.7726 86.5194 79.25 96.75 C 79.4131 97.4099 79.5761 98.0698 79.7441 98.7498 C 82.0182 108.5826 82.1513 118.5848 82.1328 128.6328 C 82.1338 129.7913 82.1347 130.9497 82.1357 132.1433 C 82.1364 134.5685 82.1346 136.9937 82.1304 139.4189 C 82.125 143.1491 82.1304 146.8792 82.1367 150.6094 C 82.1361 152.9714 82.1348 155.3333 82.1328 157.6953 C 82.1348 158.815 82.1369 159.9346 82.1389 161.0882 C 82.1342 162.6264 82.1342 162.6264 82.1294 164.1958 C 82.1286 165.1019 82.1278 166.0081 82.127 166.9417 C 82 169 82 169 81 170 C 77.9702 170.0887 74.9633 170.1152 71.9336 170.0977 C 71.025 170.0962 70.1163 170.0948 69.1802 170.0934 C 66.2659 170.0878 63.3517 170.0752 60.4375 170.0625 C 58.4668 170.0575 56.4961 170.0529 54.5254 170.0488 C 49.6836 170.0378 44.8418 170.0205 40 170 C 39.9624 168.0652 39.9624 168.0652 39.9241 166.0913 C 39.8289 161.2418 39.729 156.3924 39.6277 151.543 C 39.5847 149.4561 39.543 147.3692 39.5027 145.2822 C 39.4871 123.0092 39.4871 123.0092 35.6875 101.1875 C 35.4631 100.3735 35.2387 99.5594 35.0076 98.7207 C 33.4531 93.2297 31.6932 88.0462 29 83 C 28.5707 82.135 28.1415 81.2701 27.6992 80.3789 C 24.6285 74.4112 21.0801 69.3035 16.7344 64.1914 C 15 62 15 62 13 60 C 12 59 11 58 9 56 C 7.7208 54.8654 6.4736 53.6943 5.25 52.5 C -3.5853 44.4692 -14.5214 38.6135 -25 33 C -22.1626 28.6252 -19.1255 24.5121 -15.875 20.4375 C -14.907 19.2153 -13.9395 17.9926 -12.9727 16.7695 C -12.483 16.1503 -11.9933 15.5311 -11.4888 14.8931 C -9.0733 11.8217 -6.6914 8.7248 -4.3125 5.625 C -3.8786 5.0597 -3.4446 4.4943 -2.9976 3.9119 C -1.9978 2.6084 -0.9988 1.3043 0 0 Z"
            fill="#38AA39" transform="translate(77,126)" />
    </g>

    <g id="outerRight" class="part">
        <path
            d="M0 0 C2.30883268 2.18933599 4.19618887 4.66333014 6.125 7.1875 C6.68469482 7.90059326 7.24438965 8.61368652 7.82104492 9.34838867 C8.98026237 10.82698403 10.13443875 12.30954463 11.28369141 13.79589844 C12.92883267 15.90860616 14.60336547 17.99307338 16.29296875 20.0703125 C17.29971127 21.31752102 18.30623251 22.56490819 19.3125 23.8125 C19.7863916 24.39217529 20.2602832 24.97185059 20.74853516 25.5690918 C24 29.65872015 24 29.65872015 24 33 C22.96101563 33.42410156 21.92203125 33.84820312 20.8515625 34.28515625 C12.5596744 37.74093954 5.02618893 41.29568729 -2 47 C-2.86367188 47.68964844 -3.72734375 48.37929687 -4.6171875 49.08984375 C-17.44775836 59.92158681 -21.13856559 72.38465714 -22.79589844 88.57562256 C-23.46532192 96.52722849 -23.49033756 104.52545874 -23.625 112.5 C-23.66330036 114.40235925 -23.70235843 116.3047034 -23.7421875 118.20703125 C-23.83683169 122.80456083 -23.92132262 127.40217061 -24 132 C-29.82071622 132.02464638 -35.64140234 132.0428343 -41.4621582 132.05493164 C-43.44393441 132.05997267 -45.42570689 132.06680538 -47.4074707 132.07543945 C-50.24952109 132.08751515 -53.09152247 132.09323045 -55.93359375 132.09765625 C-57.27108925 132.10539818 -57.27108925 132.10539818 -58.63560486 132.11329651 C-60.75740601 132.11349177 -62.8791078 132.0621003 -65 132 C-66.58506278 130.41493722 -66.13515602 128.79309446 -66.14526367 126.59472656 C-66.15164352 125.65574524 -66.15802338 124.71676392 -66.16459656 123.74932861 C-66.16570938 122.72345642 -66.1668222 121.69758423 -66.16796875 120.640625 C-66.17129715 119.5852655 -66.17462555 118.52990601 -66.17805481 117.44256592 C-66.18313364 115.19625281 -66.18546284 112.94993212 -66.18530273 110.70361328 C-66.18746426 107.30618288 -66.20553971 103.90909052 -66.22460938 100.51171875 C-66.30034839 71.5776769 -60.80437552 45.37406172 -39.96875 23.96875 C-38.9816751 22.97666457 -37.9922908 21.98686844 -37 21 C-36.2471875 20.2471875 -35.494375 19.494375 -34.71875 18.71875 C-28.46874908 12.84188347 -21.29507614 8.4445146 -14 4 C-13.10152344 3.43410156 -12.20304687 2.86820313 -11.27734375 2.28515625 C-10.50519531 1.81980469 -9.73304688 1.35445312 -8.9375 0.875 C-8.28652344 0.48054687 -7.63554687 0.08609375 -6.96484375 -0.3203125 C-4.07613373 -1.31958793 -2.86155673 -1.15734072 0 0 Z"
            fill="#38AA39" transform="translate(275,164)" />
    </g>

    <g id="outerLeft" class="part">
        <path
            d="M 0 0 C 16.5461 1.3099 33.6836 18.2198 44.3018 29.9883 C 59.3565 47.822 65.1762 69.9561 65.1328 92.9023 C 65.1338 94.0207 65.1347 95.139 65.1357 96.2912 C 65.1364 98.6401 65.1346 100.9891 65.1304 103.3381 C 65.125 106.9501 65.1303 110.5619 65.1367 114.1738 C 65.1361 116.4583 65.1348 118.7428 65.1328 121.0273 C 65.1348 122.1126 65.1369 123.198 65.1389 124.3161 C 65.1342 125.8089 65.1342 125.8089 65.1294 127.3318 C 65.1286 128.2114 65.1278 129.0911 65.127 129.9974 C 65 132 65 132 64 133 C 60.9702 133.0887 57.9633 133.1152 54.9336 133.0977 C 54.025 133.0962 53.1163 133.0948 52.1802 133.0934 C 49.2659 133.0878 46.3517 133.0752 43.4375 133.0625 C 41.4668 133.0575 39.4961 133.0529 37.5254 133.0488 C 32.6836 133.0378 27.8418 133.0205 22 133 C 21.7416 128.1918 21.9254 123.5234 22.0078 118.5977 C 22.0254 116.7181 22.0423 114.8385 22.0586 112.959 C 22.0893 110.0235 22.1246 107.0883 22.1714 104.1531 C 22.4681 84.4755 21.2182 68.2922 7.2813 53.2266 C -1.9492 44.2174 -13.4964 38.5251 -25 33 C -23.7075 30.2347 -22.2863 27.9348 -20.3555 25.5742 C -19.5869 24.6258 -19.5869 24.6258 -18.8027 23.6582 C -18.0032 22.6827 -18.0032 22.6827 -17.1875 21.6875 C -14.0744 17.8741 -11.024 14.0811 -8.2383 10.0195 C -7.4996 9.0231 -6.761 8.0266 -6 7 C -6 7 -5 6 -5 6 C -4 4 -5 6 -4 4 C -2 2 -2 2 0 0 Z"
            fill="#38A939" transform="translate(48,163)" />
    </g>


    <g id="teks" class="part teks">
    <path d="M0 0 C3.99649744 0 5.42194502 0.25372594 8.33984375 3.0625 C10.3582766 5.88905773 12.16838691 8.76253545 13.9375 11.75 C14.91884677 13.09712148 15.91166938 14.4364364 16.9375 15.75 C16.98648438 14.83476562 17.03546875 13.91953125 17.0859375 12.9765625 C17.16070312 11.78804688 17.23546875 10.59953125 17.3125 9.375 C17.38210937 8.19164062 17.45171875 7.00828125 17.5234375 5.7890625 C17.9375 2.75 17.9375 2.75 19.9375 0.75 C22.28515625 0.51953125 22.28515625 0.51953125 25 0.5625 C26.34771484 0.57216797 26.34771484 0.57216797 27.72265625 0.58203125 C29.9375 0.75 29.9375 0.75 30.9375 1.75 C31.03845564 4.40456193 31.07720998 7.03255176 31.0703125 9.6875 C31.07126923 10.482771 31.07222595 11.27804199 31.07321167 12.09741211 C31.07389343 13.7820646 31.07203943 15.46671971 31.06787109 17.15136719 C31.06252275 19.73899197 31.06781619 22.32644316 31.07421875 24.9140625 C31.07355797 26.54687539 31.0722768 28.17968816 31.0703125 29.8125 C31.07233673 30.59165771 31.07436096 31.37081543 31.07644653 32.17358398 C31.05245105 37.63504895 31.05245105 37.63504895 29.9375 38.75 C25.22856591 39.36041738 21.2610712 39.64264104 17.25 36.9375 C13.91899739 32.34611802 10.88269799 27.59642089 7.9375 22.75 C7.88851562 23.73742187 7.83953125 24.72484375 7.7890625 25.7421875 C7.71429688 27.02351563 7.63953125 28.30484375 7.5625 29.625 C7.49289063 30.90117187 7.42328125 32.17734375 7.3515625 33.4921875 C6.9375 36.75 6.9375 36.75 4.9375 38.75 C2.58984375 38.98046875 2.58984375 38.98046875 -0.125 38.9375 C-1.02347656 38.93105469 -1.92195312 38.92460937 -2.84765625 38.91796875 C-5.0625 38.75 -5.0625 38.75 -6.0625 37.75 C-6.16345564 35.09543807 -6.20220998 32.46744824 -6.1953125 29.8125 C-6.19626923 29.017229 -6.19722595 28.22195801 -6.19821167 27.40258789 C-6.19889343 25.7179354 -6.19703943 24.03328029 -6.19287109 22.34863281 C-6.18752275 19.76100803 -6.19281619 17.17355684 -6.19921875 14.5859375 C-6.19855797 12.95312461 -6.1972768 11.32031184 -6.1953125 9.6875 C-6.19733673 8.90834229 -6.19936096 8.12918457 -6.20144653 7.32641602 C-6.17495897 1.29774459 -6.04144902 0.56508739 0 0 Z " fill="#D07B06" transform="translate(191.0625,301.25)" />
    <path d="M0 0 C1.03382813 -0.02900391 2.06765625 -0.05800781 3.1328125 -0.08789062 C9.62650261 -0.14172862 13.61506428 0.40717786 18.875 4.3125 C21.43000792 8.03855322 21.08367823 11.82826901 20.4921875 16.15625 C19.53085931 19.51481429 17.57115352 21.20818506 14.875 23.3125 C12.11047967 24.69476016 9.8288637 24.40775387 6.75 24.375 C5.65429688 24.36597656 4.55859375 24.35695313 3.4296875 24.34765625 C2.58664063 24.33605469 1.74359375 24.32445312 0.875 24.3125 C0.88660156 25.23933594 0.89820313 26.16617187 0.91015625 27.12109375 C0.91917969 28.31863281 0.92820313 29.51617187 0.9375 30.75 C0.94910156 31.94496094 0.96070313 33.13992188 0.97265625 34.37109375 C0.875 37.3125 0.875 37.3125 -0.125 38.3125 C-1.97787502 38.38476502 -3.83333878 38.3963122 -5.6875 38.375 C-6.69941406 38.36597656 -7.71132812 38.35695313 -8.75390625 38.34765625 C-9.92759766 38.33025391 -9.92759766 38.33025391 -11.125 38.3125 C-13.50655213 33.64352823 -13.39405545 29.42161965 -13.3125 24.3125 C-13.30532959 23.47541504 -13.29815918 22.63833008 -13.29077148 21.77587891 C-13.01077929 0.11900103 -13.01077929 0.11900103 0 0 Z M0.875 9.3125 C0.875 11.2925 0.875 13.2725 0.875 15.3125 C2.855 15.3125 4.835 15.3125 6.875 15.3125 C7.5564823 13.42070797 7.5564823 13.42070797 7.875 11.3125 C6.03616119 9.02521266 6.03616119 9.02521266 3.25 9.1875 C2.074375 9.249375 2.074375 9.249375 0.875 9.3125 Z " fill="#C18624" transform="translate(160.125,301.6875)" />
    <path d="M0 0 C1.12276085 -0.0049926 1.12276085 -0.0049926 2.26820374 -0.01008606 C3.85449609 -0.01515818 5.44079915 -0.0174943 7.02709961 -0.01733398 C9.45899994 -0.01951898 11.89044574 -0.03766706 14.32226562 -0.05664062 C15.86067553 -0.05957474 17.39908759 -0.06155942 18.9375 -0.0625 C20.03287331 -0.07327827 20.03287331 -0.07327827 21.15037537 -0.08427429 C26.30633318 -0.06085432 26.30633318 -0.06085432 28.53515625 2.16796875 C28.78515625 5.66796875 28.78515625 5.66796875 28.53515625 9.16796875 C26.53515625 11.16796875 26.53515625 11.16796875 24.37109375 11.36328125 C23.15292969 11.32847656 23.15292969 11.32847656 21.91015625 11.29296875 C21.09289062 11.27492188 20.275625 11.256875 19.43359375 11.23828125 C18.80710938 11.21507812 18.180625 11.191875 17.53515625 11.16796875 C17.5101001 11.95034912 17.48504395 12.73272949 17.45922852 13.53881836 C17.34365837 17.06121824 17.22075676 20.58332435 17.09765625 24.10546875 C17.05833984 25.33716797 17.01902344 26.56886719 16.97851562 27.83789062 C16.93662109 29.00771484 16.89472656 30.17753906 16.8515625 31.3828125 C16.81490479 32.4668335 16.77824707 33.55085449 16.74047852 34.66772461 C16.53515625 37.16796875 16.53515625 37.16796875 15.53515625 38.16796875 C13.70399742 38.26648046 11.86895692 38.29769504 10.03515625 38.29296875 C9.03484375 38.29554688 8.03453125 38.298125 7.00390625 38.30078125 C4.53515625 38.16796875 4.53515625 38.16796875 3.53515625 37.16796875 C3.44757622 35.16831893 3.42819049 33.16560765 3.4375 31.1640625 C3.44072266 29.94912109 3.44394531 28.73417969 3.44726562 27.48242188 C3.45564453 26.20302734 3.46402344 24.92363281 3.47265625 23.60546875 C3.47716797 22.32220703 3.48167969 21.03894531 3.48632812 19.71679688 C3.4981608 16.53380853 3.51464557 13.35091113 3.53515625 10.16796875 C2.42914063 10.34070313 1.323125 10.5134375 0.18359375 10.69140625 C-2.93936274 11.0993299 -4.60048158 11.26964651 -7.46484375 10.16796875 C-8.46484375 9.16796875 -8.46484375 9.16796875 -8.59765625 7.35546875 C-8.59507813 6.63359375 -8.5925 5.91171875 -8.58984375 5.16796875 C-8.59242187 4.44609375 -8.595 3.72421875 -8.59765625 2.98046875 C-8.27248316 -1.45718751 -3.42438181 0.00520398 0 0 Z " fill="#AA8524" transform="translate(116.46484375,301.83203125)" />
    <path d="M0 0 C1.56331055 -0.0309375 1.56331055 -0.0309375 3.15820312 -0.0625 C8.74090458 -0.09089263 13.08344417 -0.09134928 17.8125 3.25 C20.52205758 7.70765924 21.34532087 11.32608056 20.4609375 16.38671875 C19.36463044 19.53695049 17.3816448 21.23138623 14.8125 23.25 C11.66319107 24.29976964 9.42435544 24.35131595 6.125 24.3125 C5.13113281 24.30347656 4.13726562 24.29445313 3.11328125 24.28515625 C1.97439453 24.26775391 1.97439453 24.26775391 0.8125 24.25 C0.83570312 25.09304688 0.85890625 25.93609375 0.8828125 26.8046875 C0.90988281 28.44824219 0.90988281 28.44824219 0.9375 30.125 C0.96070312 31.21554687 0.98390625 32.30609375 1.0078125 33.4296875 C0.8125 36.25 0.8125 36.25 -1.1875 38.25 C-3.53515625 38.48046875 -3.53515625 38.48046875 -6.25 38.4375 C-7.14847656 38.43105469 -8.04695313 38.42460937 -8.97265625 38.41796875 C-11.1875 38.25 -11.1875 38.25 -12.1875 37.25 C-12.28845564 34.59543807 -12.32720998 31.96744824 -12.3203125 29.3125 C-12.32126923 28.517229 -12.32222595 27.72195801 -12.32321167 26.90258789 C-12.32389343 25.2179354 -12.32203943 23.53328029 -12.31787109 21.84863281 C-12.31252275 19.26100803 -12.31781619 16.67355684 -12.32421875 14.0859375 C-12.32355797 12.45312461 -12.3222768 10.82031184 -12.3203125 9.1875 C-12.32233673 8.40834229 -12.32436096 7.62918457 -12.32644653 6.82641602 C-12.28722626 -2.10026953 -7.76904289 0.0377367 0 0 Z M0.8125 9.25 C0.8125 11.23 0.8125 13.21 0.8125 15.25 C2.4625 15.25 4.1125 15.25 5.8125 15.25 C6.4725 13.93 7.1325 12.61 7.8125 11.25 C5.97366119 8.96271266 5.97366119 8.96271266 3.1875 9.125 C2.011875 9.186875 2.011875 9.186875 0.8125 9.25 Z " fill="#AB890A" transform="translate(86.1875,301.75)" />
    <path d="M0 0 C3.6875 0.4296875 3.6875 0.4296875 4.6875 1.4296875 C4.77450342 3.06441632 4.79451063 4.70282805 4.78515625 6.33984375 C4.78193359 7.32919922 4.77871094 8.31855469 4.77539062 9.33789062 C4.76701172 10.37880859 4.75863281 11.41972656 4.75 12.4921875 C4.74548828 13.53697266 4.74097656 14.58175781 4.73632812 15.65820312 C4.72449913 18.2487541 4.70801689 20.83919309 4.6875 23.4296875 C6.3375 23.7596875 7.9875 24.0896875 9.6875 24.4296875 C9.8125 30.1796875 9.8125 30.1796875 8.6875 32.4296875 C7.3675 32.4296875 6.0475 32.4296875 4.6875 32.4296875 C4.708125 33.3990625 4.72875 34.3684375 4.75 35.3671875 C4.6875 38.4296875 4.6875 38.4296875 3.6875 39.4296875 C-2.1535596 39.80054843 -2.1535596 39.80054843 -4.3125 39.4296875 C-6.3125 36.4296875 -6.3125 36.4296875 -6.3125 32.4296875 C-7.52808594 32.44128906 -8.74367187 32.45289063 -9.99609375 32.46484375 C-11.58072764 32.47422028 -13.16536318 32.48332063 -14.75 32.4921875 C-15.55244141 32.50056641 -16.35488281 32.50894531 -17.18164062 32.51757812 C-19.22545221 32.5262018 -21.26933902 32.481969 -23.3125 32.4296875 C-24.3125 31.4296875 -24.3125 31.4296875 -24.875 27.9921875 C-24.75126885 21.6481542 -20.36411223 17.89764639 -16.3125 13.4296875 C-15.33544101 12.25648158 -14.36163255 11.08056305 -13.390625 9.90234375 C-12.36642489 8.70155182 -11.34039447 7.50231852 -10.3125 6.3046875 C-9.6023877 5.43324097 -9.6023877 5.43324097 -8.87792969 4.54418945 C-6.08441234 1.39793135 -4.14217941 0.0609144 0 0 Z M-7.3125 16.4296875 C-9.00338222 18.40925692 -10.67080472 20.40913946 -12.3125 22.4296875 C-10.3325 22.4296875 -8.3525 22.4296875 -6.3125 22.4296875 C-6.3125 20.4496875 -6.3125 18.4696875 -6.3125 16.4296875 C-6.6425 16.4296875 -6.9725 16.4296875 -7.3125 16.4296875 Z " fill="#D67A0A" transform="translate(249.3125,300.5703125)" />
    </g>
    </g>

    <style><![CDATA[
        .loader {
            width: 200px;
            height: 200px;
        }
        .part {
            transform-origin: center;
            animation: inOut 3s infinite ease-in-out;
        }
        #left { animation-delay: 0s; }
        #right { animation-delay: 0.3s; }
        #middle { animation-delay: 0.6s; }
        #outerRight { animation-delay: 0.9s; }
        #outerLeft { animation-delay: 1.2s; }
        .teks {
            opacity: 0;
            transform-origin: center;
            animation: textInOut 3s infinite ease-in-out;
        }
        .teks:nth-of-type(6) { animation-delay: 1s; }
        .teks:nth-of-type(5) { animation-delay: 0.8s; }
        .teks:nth-of-type(4) { animation-delay: 0.6s; }
        .teks:nth-of-type(3) { animation-delay: 0.4s; }
        .teks:nth-of-type(2) { animation-delay: 0.2s; }
        .teks:nth-of-type(1) { animation-delay: 0s; }
        @keyframes textInOut {
            0% { opacity: 0; transform: scale(0.5); }
            25% { opacity: 1; transform: scale(1.1); }
            50% { opacity: 1; transform: scale(1); }
            75% { opacity: 0.5; transform: scale(0.8); }
            100% { opacity: 0; transform: scale(0.5); }
        }
        @keyframes inOut {
            0% { transform: scale(0); opacity: 0; }
            30% { transform: scale(1.1); opacity: 1; }
            70% { transform: scale(1); opacity: 1; }
            100% { transform: scale(0); opacity: 0; }
        }
    ]]></style>
</svg>