<svg viewBox="0 0 350 350" xmlns="http://www.w3.org/2000/svg">
    <g id="left" class="part">
        <path
            d="M0 0 C3.25130606 1.02596769 4.08182524 2.13019158 5.9296875 5.0703125 C6.59893452 6.41169269 7.24585385 7.76435034 7.875 9.125 C8.21869629 9.86709717 8.56239258 10.60919434 8.91650391 11.3737793 C18.26221802 32.65208384 20.57814613 56.00263171 20 79 C21.33804688 78.25943359 21.33804688 78.25943359 22.703125 77.50390625 C23.88528608 76.85653232 25.06758504 76.20941011 26.25 75.5625 C26.83652344 75.23701172 27.42304688 74.91152344 28.02734375 74.57617188 C34.63542709 70.97513769 40.50493908 70.00255843 48 71 C55.1444179 73.53965163 61.24364386 77.05455483 66 83 C66 83.99 66 84.98 66 86 C65.05640625 86.08636719 64.1128125 86.17273438 63.140625 86.26171875 C52.29439073 87.44870623 43.37390803 90.19629882 34 96 C35.45019531 95.7834375 35.45019531 95.7834375 36.9296875 95.5625 C38.23164063 95.376875 39.53359375 95.19125 40.875 95 C42.15117187 94.814375 43.42734375 94.62875 44.7421875 94.4375 C53.20636051 93.43818796 61.24647873 94.12219872 69.625 95.5 C70.53378906 95.64308594 71.44257813 95.78617187 72.37890625 95.93359375 C74.58711883 96.28225889 76.79397643 96.63778827 79 97 C79 98.32 79 99.64 79 101 C77.47632813 101.81791016 77.47632813 101.81791016 75.921875 102.65234375 C44.62097781 119.69292492 17.88191877 146.28413974 6.6875 180.6875 C5.16321279 185.95085072 4.16301266 191.21425649 3.39453125 196.63671875 C3 199 3 199 2 201 C1.34 201 0.68 201 0 201 C-0.18006592 200.16359985 -0.18006592 200.16359985 -0.36376953 199.31030273 C-9.42898781 157.80047211 -31.27297464 129.16119506 -66.76318359 106.37646484 C-70.43478489 104.11707955 -74.20544928 102.0444224 -78 100 C-78 99.34 -78 98.68 -78 98 C-61.89701846 94.09699075 -48.42801711 93.31395925 -32 96 C-34.18376766 94.86722732 -36.37157128 93.74377211 -38.5625 92.625 C-39.17158203 92.30789062 -39.78066406 91.99078125 -40.40820312 91.6640625 C-46.20607613 88.71911113 -51.92041048 86.91065119 -58.4375 86.375 C-59.30246094 86.30023438 -60.16742188 86.22546875 -61.05859375 86.1484375 C-62.01958984 86.07496094 -62.01958984 86.07496094 -63 86 C-63 82 -63 82 -61.6015625 80.21875 C-54.50908702 74.05138001 -47.17775095 70.18625665 -37.58203125 70.609375 C-30.1658548 71.73133815 -24.10482848 74.75161059 -18 79 C-18.05800781 77.97648437 -18.11601562 76.95296875 -18.17578125 75.8984375 C-19.14215016 49.95812241 -13.54264016 23.7251061 -1 1 C-0.67 0.67 -0.34 0.34 0 0 Z "
            fill="#EA7102" transform="translate(160,3)" />
    </g>

    <g id="right" class="part">
        <path
            d="M0 0 C3.0719297 1.68618896 4.85391343 4.36968433 6.89453125 7.13671875 C7.85626767 8.40631744 8.81989233 9.67448742 9.78515625 10.94140625 C10.29369141 11.61139648 10.80222656 12.28138672 11.32617188 12.97167969 C13.03158638 15.17033684 14.78799836 17.31705804 16.56640625 19.45703125 C17.16203369 20.1749585 17.75766113 20.89288574 18.37133789 21.63256836 C19.54008326 23.03593176 20.71364968 24.43529613 21.89233398 25.83032227 C22.68812866 26.79216431 22.68812866 26.79216431 23.5 27.7734375 C23.9746167 28.33893311 24.4492334 28.90442871 24.93823242 29.48706055 C25.95703125 31.07421875 25.95703125 31.07421875 25.95703125 34.07421875 C24.92964844 34.55890625 23.90226562 35.04359375 22.84375 35.54296875 C10.00691421 41.70657654 -0.77062187 49.13593193 -11.04296875 59.07421875 C-11.80480469 59.81027344 -12.56664062 60.54632813 -13.3515625 61.3046875 C-32.09853051 80.70146376 -37.91636849 107.97971371 -38.359375 134.13671875 C-38.3801561 135.16861328 -38.40093719 136.20050781 -38.42234802 137.26367188 C-38.4873098 140.53379171 -38.5464784 143.8039863 -38.60546875 147.07421875 C-38.64870482 149.30209081 -38.69232067 151.52995554 -38.73632812 153.7578125 C-38.84293585 159.19653742 -38.9447976 164.63533535 -39.04296875 170.07421875 C-44.86368497 170.09886513 -50.68437109 170.11705305 -56.50512695 170.12915039 C-58.48690316 170.13419142 -60.46867564 170.14102413 -62.45043945 170.1496582 C-65.29248984 170.1617339 -68.13449122 170.1674492 -70.9765625 170.171875 C-72.314058 170.17961693 -72.314058 170.17961693 -73.67857361 170.18751526 C-75.80037476 170.18771052 -77.92207655 170.13631905 -80.04296875 170.07421875 C-81.63232666 168.48486084 -81.1781705 166.84409385 -81.18823242 164.640625 C-81.19461227 163.69453369 -81.20099213 162.74844238 -81.20756531 161.77368164 C-81.20867813 160.73848389 -81.20979095 159.70328613 -81.2109375 158.63671875 C-81.2142659 157.5686499 -81.2175943 156.50058105 -81.22102356 155.40014648 C-81.22610416 153.12353954 -81.22843154 150.8469251 -81.22827148 148.5703125 C-81.23042464 145.14439844 -81.24847392 141.71882428 -81.26757812 138.29296875 C-81.37913939 95.69463995 -70.50108452 60.43812759 -41.04296875 29.07421875 C-40.47964844 28.43484375 -39.91632813 27.79546875 -39.3359375 27.13671875 C-31.69380715 18.85630663 -11.80524959 0.4288714 0 0 Z "
            fill="#38AA39" transform="translate(244.04296875,105.92578125)" />
    </g>

    <g id="middle" class="part">
        <path
            d="M0 0 C15.8925736 3.28811868 30.65504275 18.06884058 42 29 C42.64195313 29.59039062 43.28390625 30.18078125 43.9453125 30.7890625 C54.25871617 40.52683433 61.497738 52.5288894 68 65 C68.34901367 65.66507568 68.69802734 66.33015137 69.05761719 67.01538086 C73.88448557 76.40835836 76.77264319 86.51939128 79.25 96.75 C79.41306641 97.40991943 79.57613281 98.06983887 79.74414062 98.74975586 C82.01819649 108.58262825 82.15131307 118.58479226 82.1328125 128.6328125 C82.13376923 129.79126678 82.13472595 130.94972107 82.13571167 132.14328003 C82.13638738 134.56850235 82.13457593 136.99372654 82.13037109 139.41894531 C82.12496503 143.14912894 82.1303616 146.87919483 82.13671875 150.609375 C82.13605882 152.97135443 82.13477942 155.33333379 82.1328125 157.6953125 C82.13483673 158.81495392 82.13686096 159.93459534 82.13894653 161.08816528 C82.13421829 162.62644485 82.13421829 162.62644485 82.12939453 164.19580078 C82.12859894 165.10194122 82.12780334 166.00808167 82.12698364 166.94168091 C82 169 82 169 81 170 C77.97022196 170.08871273 74.96332978 170.1151935 71.93359375 170.09765625 C71.02497086 170.0962413 70.11634796 170.09482635 69.18019104 170.09336853 C66.26592779 170.08775193 63.35174019 170.07519665 60.4375 170.0625 C58.46679798 170.05748714 56.49609476 170.05292386 54.52539062 170.04882812 C49.68356441 170.03777711 44.84179505 170.02050138 40 170 C39.96241577 168.06519775 39.96241577 168.06519775 39.92407227 166.09130859 C39.82890579 161.24178477 39.72896571 156.39236842 39.62768555 151.54296875 C39.5847448 149.45608051 39.54304711 147.36916627 39.50268555 145.28222656 C39.48705749 123.009179 39.48705749 123.009179 35.6875 101.1875 C35.46312256 100.37345703 35.23874512 99.55941406 35.00756836 98.72070312 C33.45313626 93.22966484 31.6932468 88.04619166 29 83 C28.57074219 82.13503906 28.14148438 81.27007812 27.69921875 80.37890625 C24.62845132 74.41118841 21.08008508 69.30351094 16.734375 64.19140625 C15 62 15 62 14.015625 59.83984375 C12.70977476 57.47424582 11.42295868 57.11276621 9 56 C7.72081025 54.86541431 6.47364609 53.69427859 5.25 52.5 C-3.58531015 44.46922969 -14.52144284 38.61351276 -25 33 C-22.16262524 28.62516403 -19.12552963 24.51211573 -15.875 20.4375 C-14.90697309 19.21530211 -13.93954006 17.99263365 -12.97265625 16.76953125 C-12.48297363 16.15029785 -11.99329102 15.53106445 -11.48876953 14.89306641 C-9.07332086 11.82166775 -6.69136467 8.72477197 -4.3125 5.625 C-3.87856934 5.05966553 -3.44463867 4.49433105 -2.99755859 3.91186523 C-1.99776261 2.60837765 -0.99878123 1.30426529 0 0 Z "
            fill="#38AA39" transform="translate(77,106)" />
    </g>

    <g id="outerRight" class="part">
        <path
            d="M0 0 C2.30883268 2.18933599 4.19618887 4.66333014 6.125 7.1875 C6.68469482 7.90059326 7.24438965 8.61368652 7.82104492 9.34838867 C8.98026237 10.82698403 10.13443875 12.30954463 11.28369141 13.79589844 C12.92883267 15.90860616 14.60336547 17.99307338 16.29296875 20.0703125 C17.29971127 21.31752102 18.30623251 22.56490819 19.3125 23.8125 C19.7863916 24.39217529 20.2602832 24.97185059 20.74853516 25.5690918 C24 29.65872015 24 29.65872015 24 33 C22.96101563 33.42410156 21.92203125 33.84820312 20.8515625 34.28515625 C12.5596744 37.74093954 5.02618893 41.29568729 -2 47 C-2.86367188 47.68964844 -3.72734375 48.37929687 -4.6171875 49.08984375 C-17.44775836 59.92158681 -21.13856559 72.38465714 -22.79589844 88.57562256 C-23.46532192 96.52722849 -23.49033756 104.52545874 -23.625 112.5 C-23.66330036 114.40235925 -23.70235843 116.3047034 -23.7421875 118.20703125 C-23.83683169 122.80456083 -23.92132262 127.40217061 -24 132 C-29.82071622 132.02464638 -35.64140234 132.0428343 -41.4621582 132.05493164 C-43.44393441 132.05997267 -45.42570689 132.06680538 -47.4074707 132.07543945 C-50.24952109 132.08751515 -53.09152247 132.09323045 -55.93359375 132.09765625 C-57.27108925 132.10539818 -57.27108925 132.10539818 -58.63560486 132.11329651 C-60.75740601 132.11349177 -62.8791078 132.0621003 -65 132 C-66.58506278 130.41493722 -66.13515602 128.79309446 -66.14526367 126.59472656 C-66.15164352 125.65574524 -66.15802338 124.71676392 -66.16459656 123.74932861 C-66.16570938 122.72345642 -66.1668222 121.69758423 -66.16796875 120.640625 C-66.17129715 119.5852655 -66.17462555 118.52990601 -66.17805481 117.44256592 C-66.18313364 115.19625281 -66.18546284 112.94993212 -66.18530273 110.70361328 C-66.18746426 107.30618288 -66.20553971 103.90909052 -66.22460938 100.51171875 C-66.30034839 71.5776769 -60.80437552 45.37406172 -39.96875 23.96875 C-38.9816751 22.97666457 -37.9922908 21.98686844 -37 21 C-36.2471875 20.2471875 -35.494375 19.494375 -34.71875 18.71875 C-28.46874908 12.84188347 -21.29507614 8.4445146 -14 4 C-13.10152344 3.43410156 -12.20304687 2.86820313 -11.27734375 2.28515625 C-10.50519531 1.81980469 -9.73304688 1.35445312 -8.9375 0.875 C-8.28652344 0.48054687 -7.63554687 0.08609375 -6.96484375 -0.3203125 C-4.07613373 -1.31958793 -2.86155673 -1.15734072 0 0 Z"
            fill="#38AA39" transform="translate(275,144)" />
    </g>

    <g id="outerLeft" class="part">
        <path
            d="M0 0 C16.54610152 1.3098997 33.68356761 18.21983528 44.30175781 29.98828125 C59.35652618 47.82199191 65.1761763 69.95610034 65.1328125 92.90234375 C65.13376923 94.02065079 65.13472595 95.13895782 65.13571167 96.29115295 C65.1363891 98.64014747 65.13456543 100.9891439 65.13037109 103.33813477 C65.12498124 106.95007456 65.13034892 110.56189199 65.13671875 114.17382812 C65.13605858 116.45833361 65.1347787 118.74283902 65.1328125 121.02734375 C65.13483673 122.11264877 65.13686096 123.1979538 65.13894653 124.31614685 C65.13421829 125.80888878 65.13421829 125.80888878 65.12939453 127.33178711 C65.12859894 128.21144638 65.12780334 129.09110565 65.12698364 129.99742126 C65 132 65 132 64 133 C60.97022196 133.08871273 57.96332978 133.1151935 54.93359375 133.09765625 C54.02497086 133.0962413 53.11634796 133.09482635 52.18019104 133.09336853 C49.26592779 133.08775193 46.35174019 133.07519665 43.4375 133.0625 C41.46679798 133.05748714 39.49609476 133.05292386 37.52539062 133.04882812 C32.68356441 133.03777711 27.84179505 133.02050138 23 133 C21.7416301 128.19179932 21.92538702 123.52339028 22.0078125 118.59765625 C22.02535063 116.71810456 22.04225677 114.83854689 22.05859375 112.95898438 C22.0893215 110.02350902 22.12458799 107.08834156 22.17138672 104.15307617 C22.46814214 84.47552447 21.21820403 68.29221351 7.28125 53.2265625 C-1.94921896 44.2173719 -13.49638749 38.52509272 -25 33 C-23.70752817 30.2347378 -22.28633653 27.93484398 -20.35546875 25.57421875 C-19.58686523 24.62579102 -19.58686523 24.62579102 -18.80273438 23.65820312 C-18.00319336 22.68270508 -18.00319336 22.68270508 -17.1875 21.6875 C-14.07444374 17.87410229 -11.02399795 14.08105509 -8.23828125 10.01953125 C-7.49964844 9.02308594 -6.76101562 8.02664062 -6 7 C-5.34 7 -4.68 7 -4 7 C-3.71125 6.21625 -3.4225 5.4325 -3.125 4.625 C-2 2 -2 2 0 0 Z"
            fill="#38A939" transform="translate(48,143)" />
    </g>

    <g id="teks" class="part">
        <path
            d="M0 0 C3.99649744 0 5.42194502 0.25372594 8.33984375 3.0625 C10.3582766 5.88905773 12.16838691 8.76253545 13.9375 11.75 C14.91884677 13.09712148 15.91166938 14.4364364 16.9375 15.75 C16.98648438 14.83476562 17.03546875 13.91953125 17.0859375 12.9765625 C17.16070312 11.78804688 17.23546875 10.59953125 17.3125 9.375 C17.38210937 8.19164062 17.45171875 7.00828125 17.5234375 5.7890625 C17.9375 2.75 17.9375 2.75 19.9375 0.75 C22.28515625 0.51953125 22.28515625 0.51953125 25 0.5625 C26.34771484 0.57216797 26.34771484 0.57216797 27.72265625 0.58203125 C29.9375 0.75 29.9375 0.75 30.9375 1.75 C31.03845564 4.40456193 31.07720998 7.03255176 31.0703125 9.6875 C31.07126923 10.482771 31.07222595 11.27804199 31.07321167 12.09741211 C31.07389343 13.7820646 31.07203943 15.46671971 31.06787109 17.15136719 C31.06252275 19.73899197 31.06781619 22.32644316 31.07421875 24.9140625 C31.07355797 26.54687539 31.0722768 28.17968816 31.0703125 29.8125 C31.07233673 30.59165771 31.07436096 31.37081543 31.07644653 32.17358398 C31.05245105 37.63504895 31.05245105 37.63504895 29.9375 38.75 C25.22856591 39.36041738 21.2610712 39.64264104 17.25 36.9375 C13.91899739 32.34611802 10.88269799 27.59642089 7.9375 22.75 C7.88851562 23.73742187 7.83953125 24.72484375 7.7890625 25.7421875 C7.71429688 27.02351563 7.63953125 28.30484375 7.5625 29.625 C7.49289063 30.90117187 7.42328125 32.17734375 7.3515625 33.4921875 C6.9375 36.75 6.9375 36.75 4.9375 38.75 C2.58984375 38.98046875 2.58984375 38.98046875 -0.125 38.9375 C-1.02347656 38.93105469 -1.92195312 38.92460937 -2.84765625 38.91796875 C-5.0625 38.75 -5.0625 38.75 -6.0625 37.75 C-6.16345564 35.09543807 -6.20220998 32.46744824 -6.1953125 29.8125 C-6.19626923 29.017229 -6.19722595 28.22195801 -6.19821167 27.40258789 C-6.19889343 25.7179354 -6.19703943 24.03328029 -6.19287109 22.34863281 C-6.18752275 19.76100803 -6.19281619 17.17355684 -6.19921875 14.5859375 C-6.19855797 12.95312461 -6.1972768 11.32031184 -6.1953125 9.6875 C-6.19733673 8.90834229 -6.19936096 8.12918457 -6.20144653 7.32641602 C-6.17495897 1.29774459 -6.04144902 0.56508739 0 0 Z "
            fill="#D07B06" transform="translate(191.0625,281.25)" />
    </g>

    <g id="teks" class="part">
        <path
            d="M0 0 C1.03382813 -0.02900391 2.06765625 -0.05800781 3.1328125 -0.08789062 C9.62650261 -0.14172862 13.61506428 0.40717786 18.875 4.3125 C21.43000792 8.03855322 21.08367823 11.82826901 20.4921875 16.15625 C19.53085931 19.51481429 17.57115352 21.20818506 14.875 23.3125 C12.11047967 24.69476016 9.8288637 24.40775387 6.75 24.375 C5.65429688 24.36597656 4.55859375 24.35695313 3.4296875 24.34765625 C2.58664063 24.33605469 1.74359375 24.32445312 0.875 24.3125 C0.88660156 25.23933594 0.89820313 26.16617187 0.91015625 27.12109375 C0.91917969 28.31863281 0.92820313 29.51617187 0.9375 30.75 C0.94910156 31.94496094 0.96070313 33.13992188 0.97265625 34.37109375 C0.875 37.3125 0.875 37.3125 -0.125 38.3125 C-1.97787502 38.38476502 -3.83333878 38.3963122 -5.6875 38.375 C-6.69941406 38.36597656 -7.71132812 38.35695313 -8.75390625 38.34765625 C-9.92759766 38.33025391 -9.92759766 38.33025391 -11.125 38.3125 C-13.50655213 33.64352823 -13.39405545 29.42161965 -13.3125 24.3125 C-13.30532959 23.47541504 -13.29815918 22.63833008 -13.29077148 21.77587891 C-13.01077929 0.11900103 -13.01077929 0.11900103 0 0 Z M0.875 9.3125 C0.875 11.2925 0.875 13.2725 0.875 15.3125 C2.855 15.3125 4.835 15.3125 6.875 15.3125 C7.5564823 13.42070797 7.5564823 13.42070797 7.875 11.3125 C6.03616119 9.02521266 6.03616119 9.02521266 3.25 9.1875 C2.074375 9.249375 2.074375 9.249375 0.875 9.3125 Z "
            fill="#C18624" transform="translate(160.125,281.6875)" />
    </g>

    <g id="teks" class="part">
        <path
            d="M0 0 C1.12276085 -0.0049926 1.12276085 -0.0049926 2.26820374 -0.01008606 C3.85449609 -0.01515818 5.44079915 -0.0174943 7.02709961 -0.01733398 C9.45899994 -0.01951898 11.89044574 -0.03766706 14.32226562 -0.05664062 C15.86067553 -0.05957474 17.39908759 -0.06155942 18.9375 -0.0625 C20.03287331 -0.07327827 20.03287331 -0.07327827 21.15037537 -0.08427429 C26.30633318 -0.06085432 26.30633318 -0.06085432 28.53515625 2.16796875 C28.78515625 5.66796875 28.78515625 5.66796875 28.53515625 9.16796875 C26.53515625 11.16796875 26.53515625 11.16796875 24.37109375 11.36328125 C23.15292969 11.32847656 23.15292969 11.32847656 21.91015625 11.29296875 C21.09289062 11.27492188 20.275625 11.256875 19.43359375 11.23828125 C18.80710938 11.21507812 18.180625 11.191875 17.53515625 11.16796875 C17.5101001 11.95034912 17.48504395 12.73272949 17.45922852 13.53881836 C17.34365837 17.06121824 17.22075676 20.58332435 17.09765625 24.10546875 C17.05833984 25.33716797 17.01902344 26.56886719 16.97851562 27.83789062 C16.93662109 29.00771484 16.89472656 30.17753906 16.8515625 31.3828125 C16.81490479 32.4668335 16.77824707 33.55085449 16.74047852 34.66772461 C16.53515625 37.16796875 16.53515625 37.16796875 15.53515625 38.16796875 C13.70399742 38.26648046 11.86895692 38.29769504 10.03515625 38.29296875 C9.03484375 38.29554688 8.03453125 38.298125 7.00390625 38.30078125 C4.53515625 38.16796875 4.53515625 38.16796875 3.53515625 37.16796875 C3.44757622 35.16831893 3.42819049 33.16560765 3.4375 31.1640625 C3.44072266 29.94912109 3.44394531 28.73417969 3.44726562 27.48242188 C3.45564453 26.20302734 3.46402344 24.92363281 3.47265625 23.60546875 C3.47716797 22.32220703 3.48167969 21.03894531 3.48632812 19.71679688 C3.4981608 16.53380853 3.51464557 13.35091113 3.53515625 10.16796875 C2.42914063 10.34070313 1.323125 10.5134375 0.18359375 10.69140625 C-2.93936274 11.0993299 -4.60048158 11.26964651 -7.46484375 10.16796875 C-8.46484375 9.16796875 -8.46484375 9.16796875 -8.59765625 7.35546875 C-8.59507813 6.63359375 -8.5925 5.91171875 -8.58984375 5.16796875 C-8.59242187 4.44609375 -8.595 3.72421875 -8.59765625 2.98046875 C-8.27248316 -1.45718751 -3.42438181 0.00520398 0 0 Z "
            fill="#AA8524" transform="translate(116.46484375,281.83203125)" />
    </g>

    <g id="teks" class="part">
        <path
            d="M0 0 C1.56331055 -0.0309375 1.56331055 -0.0309375 3.15820312 -0.0625 C8.74090458 -0.09089263 13.08344417 -0.09134928 17.8125 3.25 C20.52205758 7.70765924 21.34532087 11.32608056 20.4609375 16.38671875 C19.36463044 19.53695049 17.3816448 21.23138623 14.8125 23.25 C11.66319107 24.29976964 9.42435544 24.35131595 6.125 24.3125 C5.13113281 24.30347656 4.13726562 24.29445313 3.11328125 24.28515625 C1.97439453 24.26775391 1.97439453 24.26775391 0.8125 24.25 C0.83570312 25.09304688 0.85890625 25.93609375 0.8828125 26.8046875 C0.90988281 28.44824219 0.90988281 28.44824219 0.9375 30.125 C0.96070312 31.21554687 0.98390625 32.30609375 1.0078125 33.4296875 C0.8125 36.25 0.8125 36.25 -1.1875 38.25 C-3.53515625 38.48046875 -3.53515625 38.48046875 -6.25 38.4375 C-7.14847656 38.43105469 -8.04695313 38.42460937 -8.97265625 38.41796875 C-11.1875 38.25 -11.1875 38.25 -12.1875 37.25 C-12.28845564 34.59543807 -12.32720998 31.96744824 -12.3203125 29.3125 C-12.32126923 28.517229 -12.32222595 27.72195801 -12.32321167 26.90258789 C-12.32389343 25.2179354 -12.32203943 23.53328029 -12.31787109 21.84863281 C-12.31252275 19.26100803 -12.31781619 16.67355684 -12.32421875 14.0859375 C-12.32355797 12.45312461 -12.3222768 10.82031184 -12.3203125 9.1875 C-12.32233673 8.40834229 -12.32436096 7.62918457 -12.32644653 6.82641602 C-12.28722626 -2.10026953 -7.76904289 0.0377367 0 0 Z M0.8125 9.25 C0.8125 11.23 0.8125 13.21 0.8125 15.25 C2.4625 15.25 4.1125 15.25 5.8125 15.25 C6.4725 13.93 7.1325 12.61 7.8125 11.25 C5.97366119 8.96271266 5.97366119 8.96271266 3.1875 9.125 C2.011875 9.186875 2.011875 9.186875 0.8125 9.25 Z "
            fill="#AB890A" transform="translate(86.1875,281.75)" />
    </g>

    <g id="teks" class="part">
        <path
            d="M0 0 C3.6875 0.4296875 3.6875 0.4296875 4.6875 1.4296875 C4.77450342 3.06441632 4.79451063 4.70282805 4.78515625 6.33984375 C4.78193359 7.32919922 4.77871094 8.31855469 4.77539062 9.33789062 C4.76701172 10.37880859 4.75863281 11.41972656 4.75 12.4921875 C4.74548828 13.53697266 4.74097656 14.58175781 4.73632812 15.65820312 C4.72449913 18.2487541 4.70801689 20.83919309 4.6875 23.4296875 C6.3375 23.7596875 7.9875 24.0896875 9.6875 24.4296875 C9.8125 30.1796875 9.8125 30.1796875 8.6875 32.4296875 C7.3675 32.4296875 6.0475 32.4296875 4.6875 32.4296875 C4.708125 33.3990625 4.72875 34.3684375 4.75 35.3671875 C4.6875 38.4296875 4.6875 38.4296875 3.6875 39.4296875 C-2.1535596 39.80054843 -2.1535596 39.80054843 -4.3125 39.4296875 C-6.3125 36.4296875 -6.3125 36.4296875 -6.3125 32.4296875 C-7.52808594 32.44128906 -8.74367187 32.45289063 -9.99609375 32.46484375 C-11.58072764 32.47422028 -13.16536318 32.48332063 -14.75 32.4921875 C-15.55244141 32.50056641 -16.35488281 32.50894531 -17.18164062 32.51757812 C-19.22545221 32.5262018 -21.26933902 32.481969 -23.3125 32.4296875 C-24.3125 31.4296875 -24.3125 31.4296875 -24.875 27.9921875 C-24.75126885 21.6481542 -20.36411223 17.89764639 -16.3125 13.4296875 C-15.33544101 12.25648158 -14.36163255 11.08056305 -13.390625 9.90234375 C-12.36642489 8.70155182 -11.34039447 7.50231852 -10.3125 6.3046875 C-9.6023877 5.43324097 -9.6023877 5.43324097 -8.87792969 4.54418945 C-6.08441234 1.39793135 -4.14217941 0.0609144 0 0 Z M-7.3125 16.4296875 C-9.00338222 18.40925692 -10.67080472 20.40913946 -12.3125 22.4296875 C-10.3325 22.4296875 -8.3525 22.4296875 -6.3125 22.4296875 C-6.3125 20.4496875 -6.3125 18.4696875 -6.3125 16.4296875 C-6.6425 16.4296875 -6.9725 16.4296875 -7.3125 16.4296875 Z "
            fill="#D67A0A" transform="translate(249.3125,280.5703125)" />
    </g>

    <style><![CDATA[
    .loader {
        width: 200px;
        height: 200px;
    }

    .part {
        transform-origin: center;
        animation: pulse 3s infinite ease-in-out;
    }

    .part:nth-child(1) {
        animation-delay: 0s;
    }

    .part:nth-child(2) {
        animation-delay: 0.3s;
    }

    .part:nth-child(3) {
        animation-delay: 0.6s;
    }

    .part:nth-child(4) {
        animation-delay: 0.9s;
    } 

    .part:nth-child(5) {
        animation-delay: 1.2s;
    }

    #teks {
        animation: fade 3s infinite ease-in-out;
    }

    @keyframes pulse {
    0%,
    100% {
        transform: scale(1);
        opacity: 1;
    }
    50% {
            transform: scale(1.1);
            opacity: 0.8;
        }
    }

    @keyframes fade {
        0%,
        100% {
            opacity: 1;
        }
        50% {
            opacity: 0.5;
        }
    }
    ]]></style>
</svg>